<svg width="16" height="14" viewBox="0 0 16 14" fill="none" xmlns="http://www.w3.org/2000/svg">
<path fill-rule="evenodd" clip-rule="evenodd" d="M6.66663 1.66665C5.19387 1.66665 3.99996 2.86055 3.99996 4.33331C3.99996 5.79441 5.17503 6.98106 6.6317 6.99976C6.65498 6.99962 6.67827 6.99962 6.70157 6.99976C8.15822 6.98105 9.33329 5.79441 9.33329 4.33331C9.33329 2.86055 8.13938 1.66665 6.66663 1.66665ZM9.09422 7.51269C10.0501 6.78175 10.6666 5.62954 10.6666 4.33331C10.6666 2.12417 8.87576 0.333313 6.66663 0.333313C4.45749 0.333313 2.66663 2.12417 2.66663 4.33331C2.66663 5.62954 3.28319 6.78175 4.23903 7.51269C4.22536 7.51874 4.21171 7.52484 4.19808 7.531C3.14558 8.00609 2.25254 8.77481 1.62613 9.7449C0.999727 10.715 0.666563 11.8452 0.666626 13C0.666646 13.3682 0.965139 13.6666 1.33333 13.6666C1.70152 13.6666 1.99998 13.3681 1.99996 12.9999C1.99991 12.1018 2.25904 11.2227 2.74624 10.4682C3.23345 9.71367 3.92804 9.11577 4.74664 8.74625C5.34095 8.47798 5.98229 8.33836 6.62898 8.33314C6.64152 8.33326 6.65406 8.33331 6.66663 8.33331C6.67918 8.33331 6.69172 8.33326 6.70424 8.33314C6.92335 8.33491 7.14289 8.35211 7.36124 8.38497C8.24937 8.51866 9.08007 8.90579 9.75362 9.49991C10.0297 9.74347 10.451 9.71707 10.6946 9.44095C10.9381 9.16483 10.9117 8.74354 10.6356 8.49999C10.173 8.0919 9.65265 7.75976 9.09422 7.51269ZM15.138 9.86191C15.3984 10.1223 15.3984 10.5444 15.138 10.8047L12.4714 13.4714C12.211 13.7317 11.7889 13.7317 11.5286 13.4714L10.1952 12.1381C9.93487 11.8777 9.93487 11.4556 10.1952 11.1952C10.4556 10.9349 10.8777 10.9349 11.138 11.1952L12 12.0572L14.1952 9.86191C14.4556 9.60156 14.8777 9.60156 15.138 9.86191Z" fill="#3F3F46"/>
</svg>
