<svg width="16" height="14" viewBox="0 0 16 14" fill="none" xmlns="http://www.w3.org/2000/svg">
<path fill-rule="evenodd" clip-rule="evenodd" d="M11.2378 2.11887C10.6279 1.75422 9.91384 1.60341 9.20858 1.69032C8.50343 1.77722 7.8474 2.09679 7.34431 2.59847C7.34423 2.59854 7.34438 2.59839 7.34431 2.59847L5.47136 4.47142C5.33116 4.61161 5.2524 4.80175 5.2524 5.00001C5.2524 5.19827 5.33116 5.38841 5.47136 5.52861C5.61155 5.6688 5.80169 5.74756 5.99995 5.74756C6.19821 5.74756 6.38835 5.6688 6.52855 5.52861L7.11521 4.94194C7.61521 4.44256 8.29328 4.16177 8.99995 4.16177C9.70662 4.16177 10.3844 4.44227 10.8844 4.94165L13.4714 7.52861C13.5156 7.57289 13.5577 7.61897 13.5975 7.66667H13.9366L13.4628 2.45475L12.9714 2.55359L12.9688 2.55411C12.4815 2.65009 11.976 2.56135 11.5506 2.30521L11.2378 2.11887ZM13.3414 1.11913L13.336 1.06036C13.3027 0.69368 13.5729 0.369407 13.9396 0.336072C14.3063 0.302738 14.6306 0.572966 14.6639 0.939644L15.3306 8.27298C15.3475 8.45951 15.2852 8.64458 15.1589 8.78289C15.0326 8.9212 14.8539 9 14.6666 9H14.0808C14.0808 9 14.0808 9 14.0808 9C14.0808 9.55189 13.8616 10.0812 13.4714 10.4714C13.0811 10.8617 12.5518 11.0809 12 11.0809C11.9023 11.0809 11.8054 11.074 11.7099 11.0606C11.6834 11.1981 11.643 11.333 11.5891 11.463C11.4845 11.7154 11.3313 11.9448 11.138 12.1381C10.9448 12.3313 10.7154 12.4846 10.4629 12.5892C10.2105 12.6937 9.93989 12.7475 9.66663 12.7475C9.39336 12.7475 9.12277 12.6937 8.87031 12.5892C8.77481 12.5496 8.68261 12.5031 8.59442 12.45C8.49076 12.7051 8.33652 12.9396 8.13803 13.1381C7.74779 13.5283 7.21851 13.7475 6.66663 13.7475C6.11475 13.7475 5.58547 13.5283 5.19522 13.1381L0.861891 8.80474C0.721988 8.66484 0.651454 8.47002 0.669367 8.27298L1.33603 0.939644C1.36937 0.572966 1.69364 0.302738 2.06032 0.336072C2.40673 0.367564 2.66707 0.65873 2.66667 1H7.23406C7.78228 0.664082 8.39934 0.446624 9.04551 0.366998C10.0451 0.24382 11.0572 0.457511 11.9217 0.974246C11.9218 0.974325 11.9215 0.974167 11.9217 0.974246L12.2378 1.16257C12.3794 1.24804 12.5477 1.27782 12.71 1.24613C12.7104 1.24606 12.7107 1.24598 12.7111 1.24591L13.3414 1.11913ZM5.72382 2.33333H2.54817L2.02549 8.08272L6.13803 12.1953C6.27823 12.3355 6.46837 12.4142 6.66663 12.4142C6.86489 12.4142 7.05503 12.3355 7.19522 12.1953C7.33542 12.0551 7.41418 11.8649 7.41418 11.6667C7.41418 11.4685 7.33553 11.2785 7.19551 11.1384C7.19542 11.1383 7.19561 11.1385 7.19551 11.1384L6.86189 10.8047C6.60154 10.5444 6.60154 10.1223 6.86189 9.86193C7.12224 9.60158 7.54435 9.60158 7.8047 9.86193L9.13803 11.1953C9.20745 11.2647 9.28986 11.3197 9.38056 11.3573C9.47125 11.3949 9.56846 11.4142 9.66663 11.4142C9.7648 11.4142 9.86201 11.3949 9.9527 11.3573C10.0434 11.3197 10.1258 11.2647 10.1952 11.1953C10.2646 11.1258 10.3197 11.0434 10.3573 10.9527C10.3948 10.862 10.4142 10.7648 10.4142 10.6667C10.4142 10.5685 10.3948 10.4713 10.3573 10.3806C10.3203 10.2914 10.2664 10.2102 10.1986 10.1415L8.86188 8.80475C8.60153 8.5444 8.60153 8.12229 8.86188 7.86194C9.12223 7.60159 9.54434 7.60159 9.80469 7.86194L11.1348 9.19205C11.1359 9.19311 11.137 9.19419 11.138 9.19526C11.1399 9.19714 11.1418 9.19903 11.1437 9.20092L11.4714 9.52861C11.6115 9.6688 11.8017 9.74756 12 9.74756C12.1982 9.74756 12.3884 9.6688 12.5285 9.52861C12.6687 9.38841 12.7475 9.19827 12.7475 9.00001C12.7475 8.80175 12.6687 8.61161 12.5285 8.47142L9.94217 5.88504C9.69217 5.63535 9.35329 5.4951 8.99995 5.4951C8.64676 5.4951 8.30799 5.63524 8.05802 5.88475L7.47136 6.47142C7.08112 6.86166 6.55183 7.08089 5.99995 7.08089C5.44807 7.08089 4.91879 6.86166 4.52855 6.47142C4.13831 6.08117 3.91907 5.55189 3.91907 5.00001C3.91907 4.44813 4.13831 3.91885 4.52855 3.52861L5.72382 2.33333Z" fill="#5A5A5A"/>
</svg>
