<svg width="12" height="16" viewBox="0 0 12 16" fill="none" xmlns="http://www.w3.org/2000/svg">
<path fill-rule="evenodd" clip-rule="evenodd" d="M4 1.33335C4 0.965164 4.29848 0.666687 4.66667 0.666687H7.33333C7.70152 0.666687 8 0.965164 8 1.33335C8 1.70154 7.70152 2.00002 7.33333 2.00002H4.66667C4.29848 2.00002 4 1.70154 4 1.33335ZM6 4.66669C3.42267 4.66669 1.33333 6.75602 1.33333 9.33335C1.33333 11.9107 3.42267 14 6 14C8.57733 14 10.6667 11.9107 10.6667 9.33335C10.6667 6.75602 8.57733 4.66669 6 4.66669ZM0 9.33335C0 6.01964 2.68629 3.33335 6 3.33335C9.31371 3.33335 12 6.01964 12 9.33335C12 12.6471 9.31371 15.3334 6 15.3334C2.68629 15.3334 0 12.6471 0 9.33335ZM8.47141 6.86195C8.73175 7.1223 8.73175 7.54441 8.47141 7.80476L6.4714 9.80476C6.21106 10.0651 5.78895 10.0651 5.5286 9.80476C5.26825 9.54441 5.26825 9.1223 5.5286 8.86195L7.5286 6.86195C7.78895 6.6016 8.21106 6.6016 8.47141 6.86195Z" fill="#7C3AED"/>
</svg>
