<svg width="16" height="16" viewBox="0 0 16 16" fill="none" xmlns="http://www.w3.org/2000/svg">
<path fill-rule="evenodd" clip-rule="evenodd" d="M3.33337 2.66665C2.96518 2.66665 2.66671 2.96512 2.66671 3.33331V5.33331H13.3334V3.33331C13.3334 2.96512 13.0349 2.66665 12.6667 2.66665H3.33337ZM14.6667 3.33331C14.6667 2.22874 13.7713 1.33331 12.6667 1.33331H3.33337C2.2288 1.33331 1.33337 2.22874 1.33337 3.33331V12.6666C1.33337 13.7712 2.2288 14.6666 3.33337 14.6666H12.6667C13.7713 14.6666 14.6667 13.7712 14.6667 12.6666V3.33331ZM13.3334 6.66665H6.66671V13.3333H12.6667C13.0349 13.3333 13.3334 13.0348 13.3334 12.6666V6.66665ZM5.33337 13.3333V6.66665H2.66671V12.6666C2.66671 13.0348 2.96518 13.3333 3.33337 13.3333H5.33337Z" fill="#3F3F46"/>
</svg>
