<svg width="16" height="16" viewBox="0 0 16 16" fill="none" xmlns="http://www.w3.org/2000/svg">
<path fill-rule="evenodd" clip-rule="evenodd" d="M2.66663 1.99999C2.30148 1.99999 1.99996 2.30151 1.99996 2.66666V5.33332C1.99996 5.69847 2.30148 5.99999 2.66663 5.99999C3.03482 5.99999 3.33329 6.29847 3.33329 6.66666C3.33329 7.03485 3.03482 7.33332 2.66663 7.33332C1.5651 7.33332 0.666626 6.43485 0.666626 5.33332V2.66666C0.666626 1.56513 1.5651 0.666656 2.66663 0.666656H5.33329C6.43482 0.666656 7.33329 1.56513 7.33329 2.66666C7.33329 3.03485 7.03482 3.33332 6.66663 3.33332C6.29844 3.33332 5.99996 3.03485 5.99996 2.66666C5.99996 2.30151 5.69844 1.99999 5.33329 1.99999H2.66663ZM6.66663 5.99999C6.30148 5.99999 5.99996 6.30151 5.99996 6.66666V9.33332C5.99996 9.69847 6.30148 9.99999 6.66663 9.99999C7.03482 9.99999 7.33329 10.2985 7.33329 10.6667C7.33329 11.0348 7.03482 11.3333 6.66663 11.3333C5.5651 11.3333 4.66663 10.4348 4.66663 9.33332V6.66666C4.66663 5.56513 5.5651 4.66666 6.66663 4.66666H9.33329C10.4348 4.66666 11.3333 5.56513 11.3333 6.66666C11.3333 7.03485 11.0348 7.33332 10.6666 7.33332C10.2984 7.33332 9.99996 7.03485 9.99996 6.66666C9.99996 6.30151 9.69844 5.99999 9.33329 5.99999H6.66663ZM10.6666 9.99999C10.2984 9.99999 9.99996 10.2985 9.99996 10.6667V13.3333C9.99996 13.7015 10.2984 14 10.6666 14H13.3333C13.7015 14 14 13.7015 14 13.3333V10.6667C14 10.2985 13.7015 9.99999 13.3333 9.99999H10.6666ZM8.66663 10.6667C8.66663 9.56209 9.56206 8.66666 10.6666 8.66666H13.3333C14.4379 8.66666 15.3333 9.56209 15.3333 10.6667V13.3333C15.3333 14.4379 14.4379 15.3333 13.3333 15.3333H10.6666C9.56206 15.3333 8.66663 14.4379 8.66663 13.3333V10.6667Z" fill="#3F3F46"/>
</svg>
