<svg width="12" height="16" viewBox="0 0 12 16" fill="none" xmlns="http://www.w3.org/2000/svg">
<path fill-rule="evenodd" clip-rule="evenodd" d="M2.66667 2.00002C2.66667 1.26364 3.26362 0.666687 4 0.666687H8C8.73638 0.666687 9.33333 1.26364 9.33333 2.00002H10C10.5304 2.00002 11.0391 2.21073 11.4142 2.58581C11.7893 2.96088 12 3.46959 12 4.00002V13.3334C12 13.8638 11.7893 14.3725 11.4142 14.7476C11.0391 15.1226 10.5304 15.3334 10 15.3334H2C1.46957 15.3334 0.960859 15.1226 0.585786 14.7476C0.210714 14.3725 0 13.8638 0 13.3334V4.00002C0 3.46959 0.210714 2.96088 0.585786 2.58581C0.960859 2.21073 1.46957 2.00002 2 2.00002H2.66667ZM2.66667 3.33335H2C1.82319 3.33335 1.65362 3.40359 1.5286 3.52862C1.40357 3.65364 1.33333 3.82321 1.33333 4.00002V13.3334C1.33333 13.5102 1.40357 13.6797 1.5286 13.8048C1.65362 13.9298 1.82319 14 2 14H10C10.1768 14 10.3464 13.9298 10.4714 13.8048C10.5964 13.6797 10.6667 13.5102 10.6667 13.3334V4.00002C10.6667 3.82321 10.5964 3.65364 10.4714 3.52862C10.3464 3.40359 10.1768 3.33335 10 3.33335H9.33333C9.33333 4.06973 8.73638 4.66669 8 4.66669H4C3.26362 4.66669 2.66667 4.06973 2.66667 3.33335ZM8 3.33335H4V2.00002H8V3.33335ZM2.66667 7.33335C2.66667 6.96516 2.96514 6.66669 3.33333 6.66669H3.34C3.70819 6.66669 4.00667 6.96516 4.00667 7.33335C4.00667 7.70154 3.70819 8.00002 3.34 8.00002H3.33333C2.96514 8.00002 2.66667 7.70154 2.66667 7.33335ZM5.33333 7.33335C5.33333 6.96516 5.63181 6.66669 6 6.66669H8.66667C9.03486 6.66669 9.33333 6.96516 9.33333 7.33335C9.33333 7.70154 9.03486 8.00002 8.66667 8.00002H6C5.63181 8.00002 5.33333 7.70154 5.33333 7.33335ZM2.66667 10.6667C2.66667 10.2985 2.96514 10 3.33333 10H3.34C3.70819 10 4.00667 10.2985 4.00667 10.6667C4.00667 11.0349 3.70819 11.3334 3.34 11.3334H3.33333C2.96514 11.3334 2.66667 11.0349 2.66667 10.6667ZM5.33333 10.6667C5.33333 10.2985 5.63181 10 6 10H8.66667C9.03486 10 9.33333 10.2985 9.33333 10.6667C9.33333 11.0349 9.03486 11.3334 8.66667 11.3334H6C5.63181 11.3334 5.33333 11.0349 5.33333 10.6667Z" fill="#3F3F46"/>
</svg>
