<svg width="16" height="14" viewBox="0 0 16 14" fill="none" xmlns="http://www.w3.org/2000/svg">
<path fill-rule="evenodd" clip-rule="evenodd" d="M5.99996 1.66665C4.89539 1.66665 3.99996 2.56208 3.99996 3.66665C3.99996 4.77122 4.89539 5.66665 5.99996 5.66665C7.10453 5.66665 7.99996 4.77122 7.99996 3.66665C7.99996 2.56208 7.10453 1.66665 5.99996 1.66665ZM2.66663 3.66665C2.66663 1.8257 4.15901 0.333313 5.99996 0.333313C7.84091 0.333313 9.33329 1.8257 9.33329 3.66665C9.33329 5.5076 7.84091 6.99998 5.99996 6.99998C4.15901 6.99998 2.66663 5.5076 2.66663 3.66665ZM10.0208 0.921209C10.1121 0.564525 10.4753 0.349409 10.832 0.440735C11.549 0.624319 12.1845 1.04132 12.6384 1.62599C13.0922 2.21067 13.3385 2.92976 13.3385 3.6699C13.3385 4.41004 13.0922 5.12914 12.6384 5.71381C12.1845 6.29848 11.549 6.71548 10.832 6.89907C10.4753 6.99039 10.1121 6.77528 10.0208 6.41859C9.92947 6.06191 10.1446 5.69873 10.5013 5.6074C10.9315 5.49725 11.3128 5.24705 11.5851 4.89625C11.8574 4.54544 12.0052 4.11399 12.0052 3.6699C12.0052 3.22582 11.8574 2.79436 11.5851 2.44356C11.3128 2.09275 10.9315 1.84255 10.5013 1.7324C10.1446 1.64108 9.92947 1.27789 10.0208 0.921209ZM1.64294 9.30962C2.26806 8.6845 3.1159 8.33331 3.99996 8.33331H7.99996C8.88401 8.33331 9.73186 8.6845 10.357 9.30962C10.9821 9.93475 11.3333 10.7826 11.3333 11.6666V13C11.3333 13.3682 11.0348 13.6666 10.6666 13.6666C10.2984 13.6666 9.99996 13.3682 9.99996 13V11.6666C9.99996 11.1362 9.78924 10.6275 9.41417 10.2524C9.0391 9.87736 8.53039 9.66665 7.99996 9.66665H3.99996C3.46953 9.66665 2.96082 9.87736 2.58575 10.2524C2.21067 10.6275 1.99996 11.1362 1.99996 11.6666V13C1.99996 13.3682 1.70148 13.6666 1.33329 13.6666C0.965103 13.6666 0.666626 13.3682 0.666626 13V11.6666C0.666626 10.7826 1.01782 9.93475 1.64294 9.30962ZM12.0211 8.9199C12.1132 8.5634 12.4768 8.34902 12.8333 8.44107C13.5484 8.62571 14.1819 9.04262 14.6344 9.62633C15.0869 10.21 15.3327 10.9275 15.3333 11.6661V12.9999C15.3333 13.3681 15.0348 13.6666 14.6666 13.6666C14.2984 13.6666 14 13.3681 14 12.9999V11.6671C13.9996 11.2239 13.8521 10.7935 13.5806 10.4432C13.3091 10.093 12.929 9.84285 12.5 9.73207C12.1435 9.64002 11.9291 9.2764 12.0211 8.9199Z" fill="#3F3F46"/>
</svg>
