<svg width="12" height="16" viewBox="0 0 12 16" fill="none" xmlns="http://www.w3.org/2000/svg">
<path fill-rule="evenodd" clip-rule="evenodd" d="M2.33333 2.00002C2.06812 2.00002 1.81376 2.10538 1.62623 2.29291C1.43869 2.48045 1.33333 2.7348 1.33333 3.00002V10.8918C1.64295 10.745 1.98411 10.6667 2.33333 10.6667H10.6667V5.33335C10.6667 4.96516 10.9651 4.66669 11.3333 4.66669C11.7015 4.66669 12 4.96516 12 5.33335V14C12 14.3536 11.8595 14.6928 11.6095 14.9428C11.3594 15.1929 11.0203 15.3334 10.6667 15.3334H2.33333C1.71449 15.3334 1.121 15.0875 0.683417 14.6499C0.245833 14.2124 0 13.6189 0 13V3.00002C0 2.38118 0.245833 1.78769 0.683417 1.3501C1.121 0.91252 1.71449 0.666687 2.33333 0.666687H7.33333C7.70152 0.666687 8 0.965164 8 1.33335C8 1.70154 7.70152 2.00002 7.33333 2.00002H2.33333ZM10.6667 12H2.33333C2.06812 12 1.81376 12.1054 1.62623 12.2929C1.43869 12.4804 1.33333 12.7348 1.33333 13C1.33333 13.2652 1.43869 13.5196 1.62623 13.7071C1.81376 13.8947 2.06812 14 2.33333 14H10.6667V12ZM10.8619 0.861949C11.1223 0.6016 11.5444 0.6016 11.8047 0.861949C12.0651 1.1223 12.0651 1.54441 11.8047 1.80476L11.6095 2.00002L11.8047 2.19528C12.0651 2.45563 12.0651 2.87774 11.8047 3.13809C11.5444 3.39844 11.1223 3.39844 10.8619 3.13809L10.6667 2.94283L9.13842 4.47108C9.26337 4.73217 9.33333 5.02459 9.33333 5.33335C9.33333 6.43792 8.4379 7.33335 7.33333 7.33335C6.22876 7.33335 5.33333 6.43792 5.33333 5.33335C5.33333 4.22878 6.22876 3.33335 7.33333 3.33335C7.6421 3.33335 7.93452 3.40332 8.19561 3.52827L10.8619 0.861949ZM7.33333 4.66669C6.96514 4.66669 6.66667 4.96516 6.66667 5.33335C6.66667 5.70154 6.96514 6.00002 7.33333 6.00002C7.70152 6.00002 8 5.70154 8 5.33335C8 4.96516 7.70152 4.66669 7.33333 4.66669Z" fill="#3F3F46"/>
</svg>
