<svg width="16" height="16" viewBox="0 0 16 16" fill="none" xmlns="http://www.w3.org/2000/svg">
<path fill-rule="evenodd" clip-rule="evenodd" d="M2.00004 1.33331C2.36823 1.33331 2.66671 1.63179 2.66671 1.99998V12.6666C2.66671 12.8435 2.73695 13.013 2.86197 13.1381C2.98699 13.2631 3.15656 13.3333 3.33337 13.3333H14C14.3682 13.3333 14.6667 13.6318 14.6667 14C14.6667 14.3682 14.3682 14.6666 14 14.6666H3.33337C2.80294 14.6666 2.29423 14.4559 1.91916 14.0809C1.54409 13.7058 1.33337 13.1971 1.33337 12.6666V1.99998C1.33337 1.63179 1.63185 1.33331 2.00004 1.33331ZM13.1381 5.52858C13.3985 5.78892 13.3985 6.21103 13.1381 6.47138L9.80478 9.80472C9.54443 10.0651 9.12232 10.0651 8.86197 9.80472L6.66671 7.60946L5.13811 9.13805C4.87776 9.3984 4.45565 9.3984 4.1953 9.13805C3.93495 8.8777 3.93495 8.45559 4.1953 8.19524L6.1953 6.19524C6.45565 5.93489 6.87776 5.93489 7.13811 6.19524L9.33337 8.3905L12.1953 5.52858C12.4557 5.26823 12.8778 5.26823 13.1381 5.52858Z" fill="#3F3F46" stroke="black" stroke-linecap="round" stroke-linejoin="round"/>
</svg>
